<svg xmlns="http://www.w3.org/2000/svg" viewBox="0 0 90 90" fill="#65bc54"><g data-name="Слой 2"><path d="M90 43.8a44 44 0 01-44.2 43.8 44.51 44.51 0 01-21.4-5.5L0 90l8-23.5A43.85 43.85 0 0145.8 0 44 44 0 0190 43.8zM45.8 7A37 37 0 008.7 43.8a36.08 36.08 0 007.1 21.6l-4.6 13.7 14.3-4.5A36.93 36.93 0 1045.8 7zm22.3 46.9a7.69 7.69 0 00-2.1-1.3c-1.1-.5-6.4-3.1-7.4-3.5s-1.7-.5-2.4.5-2.8 3.5-3.4 4.2a1.67 1.67 0 01-2.3.3 29.07 29.07 0 01-8.7-5.3 32.38 32.38 0 01-6-7.4 1.54 1.54 0 01.5-2.2c.5-.5 1.1-1.3 1.6-1.9a10.81 10.81 0 001.1-1.8 1.84 1.84 0 00-.1-1.9c-.3-.5-2.4-5.8-3.3-8s-1.8-1.8-2.4-1.8-1.4-.1-2.1-.1a4.31 4.31 0 00-2.9 1.3 12.11 12.11 0 00-3.8 9c0 5.3 3.9 10.4 4.4 11.1S36.3 57 47.3 61.3s11 2.9 13 2.7 6.4-2.6 7.3-5.1.8-4.5.5-5z" data-name="Capa 1"/></g></svg>
