<svg xmlns="http://www.w3.org/2000/svg" viewBox="0 0 12.8 17.46" fill="#c1a067"><g id="Слой_2" data-name="Слой 2"><g id="Режим_изоляции" data-name="Режим изоляции"><path d="M6.39 0A6.41 6.41 0 000 6.41 6.28 6.28 0 00.36 8.5a6.39 6.39 0 002 2.89A4.4 4.4 0 014 14.2a.2.2 0 00.14.18 8.91 8.91 0 001.8.3H6.86a7.87 7.87 0 001.82-.3.25.25 0 00.14-.16 4.54 4.54 0 011.46-2.71 3.65 3.65 0 01.31-.24 6.42 6.42 0 001.86-2.76 6.07 6.07 0 00.34-2.09A6.4 6.4 0 006.39 0m2.69 10a6.48 6.48 0 00-1.86 2.76H5.6a6.54 6.54 0 00-2-2.89 4.48 4.48 0 117.32-3.47 4.42 4.42 0 01-1.5 3.36 2.43 2.43 0 01-.3.24"/><path class="cls-1" d="M8.59 5.67a.77.77 0 00-.77.71v.09A1.42 1.42 0 015 6.45a.77.77 0 00-1.53 0 3 3 0 005.91 0 .77.77 0 00-.77-.75M8.71 15.09a8.89 8.89 0 01-1.8.28h-.98a9.65 9.65 0 01-1.8-.28.07.07 0 00-.07.07H4a2.39 2.39 0 001.45 2.08 2.41 2.41 0 00.93.19 2.47 2.47 0 00.94-.19 2.41 2.41 0 001.44-2.1.07.07 0 00-.08-.07"/></g></g></svg>
