<svg xmlns="http://www.w3.org/2000/svg" viewBox="0 0 12.8 17.46"><defs><style>.cls-1{fill:#f26449;}</style></defs><title>idea</title><g id="Слой_2" data-name="Слой 2"><g id="Режим_изоляции" data-name="Режим изоляции"><path class="cls-1" d="M6.39,0A6.41,6.41,0,0,0,0,6.41,6.28,6.28,0,0,0,.36,8.5a6.39,6.39,0,0,0,2,2.89A4.4,4.4,0,0,1,4,14.2H4a.2.2,0,0,0,.14.18h0a8.91,8.91,0,0,0,1.8.3h.47l.45,0a7.87,7.87,0,0,0,1.82-.3h0a.25.25,0,0,0,.14-.16v0a4.54,4.54,0,0,1,1.46-2.71,3.65,3.65,0,0,1,.31-.24,6.42,6.42,0,0,0,1.86-2.76,6.07,6.07,0,0,0,.34-2.09A6.4,6.4,0,0,0,6.39,0M9.08,10a6.48,6.48,0,0,0-1.86,2.76l-.19,0c-.2,0-.41,0-.62,0l-.63,0-.18,0a6.54,6.54,0,0,0-2-2.89h0a4.48,4.48,0,1,1,7.32-3.47,4.42,4.42,0,0,1-1.5,3.36,2.43,2.43,0,0,1-.3.24"/><path class="cls-1" d="M8.59,5.67a.77.77,0,0,0-.77.71v.09h0A1.42,1.42,0,0,1,5,6.45v0a.77.77,0,0,0-1.53,0,3,3,0,0,0,5.91,0h0v0a.77.77,0,0,0-.77-.75"/><path class="cls-1" d="M8.71,15.09h0a8.89,8.89,0,0,1-1.8.28l-.47,0H5.93a9.65,9.65,0,0,1-1.8-.28h0a.07.07,0,0,0-.07.07v0H4a2.39,2.39,0,0,0,1.45,2.08,2.41,2.41,0,0,0,.93.19,2.47,2.47,0,0,0,.94-.19,2.41,2.41,0,0,0,1.44-2.1h0a.07.07,0,0,0-.08-.07"/></g></g></svg>