<svg xmlns="http://www.w3.org/2000/svg" viewBox="0 0 7.82 9.56" fill="#c1a067"><g data-name="Слой 2"><path d="M3.87 8a2.26 2.26 0 01-1-.18 1.62 1.62 0 01-.55-.43C2.1 7 2 6.71 2 6.69a1.42 1.42 0 00-.37-.6A1.06 1.06 0 001 5.87a.94.94 0 00-.7.28.87.87 0 00-.3.64A2.29 2.29 0 00.43 8a3.13 3.13 0 001.09 1 5.14 5.14 0 002.41.52A5.7 5.7 0 006 9.19a3.2 3.2 0 001.37-1.06 2.79 2.79 0 00.45-1.53 3 3 0 00-.24-1.21 2.26 2.26 0 00-.76-.82A5.6 5.6 0 005.66 4C5 3.81 4.49 3.68 4.2 3.62s-.32-.05-.53-.1l-.41-.11a3 3 0 01-.52-.21 1.07 1.07 0 01-.39-.34.5.5 0 01-.16-.39.78.78 0 01.43-.64 1.82 1.82 0 011.16-.31 1.89 1.89 0 011.12.27 2.12 2.12 0 01.58.77 2.66 2.66 0 00.4.54.87.87 0 00.57.19 1 1 0 00.7-.29.88.88 0 00.28-.67 2 2 0 00-.22-.79 3.8 3.8 0 00-.64-.75A4.17 4.17 0 005.45.21 5.63 5.63 0 003.9 0 5.14 5.14 0 002 .34a2.65 2.65 0 00-1.31.91 2.28 2.28 0 00-.46 1.4A2.3 2.3 0 00.61 4a2.93 2.93 0 001.16.85 8.73 8.73 0 001.76.55 3.71 3.71 0 01.44.1l.46.12.32.08a1.77 1.77 0 01.7.43.76.76 0 01.27.64 1 1 0 01-.48.85A2.47 2.47 0 013.87 8" data-name="Режим изоляции"/></g></svg>
