<svg xmlns="http://www.w3.org/2000/svg" viewBox="0 0 22.5 23.11" fill="#8456a5"><g data-name="Слой 2"><g data-name="Layer 1"><path d="M10.73 1.21a9.87 9.87 0 016.1 2.2 10.17 10.17 0 014 6.7 16.41 16.41 0 01.2 2.3 2 2 0 00.2 1.1.54.54 0 00.4.3c.1 0 .2 0 .2-.1A.57.57 0 0022 13a2.44 2.44 0 01-.1-.7 8.75 8.75 0 00-.3-2.4 11.11 11.11 0 00-4.4-7.3A11.83 11.83 0 0010.5.2c-.8 0-.9-.1-.9-.1a.49.49 0 00-.7.1c.1.2.1.5.3.7a2.81 2.81 0 001.53.31z"/><path d="M17.13 8a6.5 6.5 0 01.8 3.1 1.81 1.81 0 00.7 1.7c.1 0 .1.1.2.1s.4-.1.4-.3a.66.66 0 00-.2-.7c-.1 0-.2-.1-.2-.8a7.13 7.13 0 00-.9-3.6 6.64 6.64 0 00-2.7-2.8 8.89 8.89 0 00-3.7-1.1c-.4 0-.5-.1-.5-.2a.49.49 0 00-.7.7 1.37 1.37 0 001.1.4 8.51 8.51 0 013.3 1 6.42 6.42 0 012.4 2.5z"/><path d="M15.63 10.31a5.29 5.29 0 00-.4-1.6A3 3 0 0012.53 7c-.5-.1-.5-.1-.6-.2a.49.49 0 00-.7-.1.62.62 0 00-.1.7 1.91 1.91 0 001.2.5 2.06 2.06 0 011.9 1.2 2.77 2.77 0 01.3 1.3 1.63 1.63 0 00.5 1.1.37.37 0 00.3.1.52.52 0 00.4-.2.49.49 0 00-.1-.7c.1.01 0 .01 0-.39z"/><path d="M22 17.31c-.3-.3-1.9-1.6-2.6-2.1a13 13 0 00-1.9-1.1 2.54 2.54 0 00-1.9-.2c-.5.2-.7.4-1.3 1.1a1.79 1.79 0 00-.5.7.35.35 0 01-.2.1c-.3.1-.8 0-1.7-.4a10.19 10.19 0 01-2.2-1.6 10.06 10.06 0 01-1.7-2 5.38 5.38 0 01-.8-2.2c0-.2 0-.5.1-.6l.1-.1c.1-.1.3-.2.5-.4.9-.7 1.2-1 1.3-1.5a3 3 0 00-.4-1.9A16.8 16.8 0 005.53.81c-.1-.1-.4-.2-.5-.3a5.28 5.28 0 00-1.2-.1 6.82 6.82 0 00-1.9 1.1 12.07 12.07 0 00-1.6 1.6 3.41 3.41 0 00.1 3.1 34 34 0 002.7 5.4c.2.3.3.5.5.8s.4.5.6.8a25.93 25.93 0 006.5 6.3l.1.1c.1.1.3.2.4.3l.3.2c.2.1.3.2.5.3l2.8 1.6.6.3.3.1c.3.1.6.3.9.4a3.92 3.92 0 001.3.3h.2a3.41 3.41 0 002-.8 8 8 0 002.2-2.7 2.3 2.3 0 00-.33-2.3z"/></g></g></svg>
