<svg xmlns="http://www.w3.org/2000/svg" viewBox="0 0 236.79 132.58" fill="#c1a067"><g data-name="Слой 2"><g data-name="Слой 1"><g data-name="Layer 2"><g data-name="Layer 1-2"><path class="cls-1" d="M108.2 64.81h-9.09a.38.38 0 01-.38-.38V33.86a1 1 0 00-1-1H94.6a1 1 0 00-1 1v35.07a1 1 0 001 1h13.59a1 1 0 001-1v-3.15a1 1 0 00-.99-.97z"/><path class="cls-2" d="M143.1 32.89H140a1 1 0 00-1 1v24.47a.41.41 0 01-.42.41.44.44 0 01-.31-.13L115 32.69a1 1 0 00-1.41.06 1 1 0 00-.26.58v35.61a1 1 0 001 1h3.17a1 1 0 001-1V45.2a.42.42 0 01.43-.42.41.41 0 01.3.14l23.27 26a1 1 0 001.67-.64V33.85a1 1 0 00-1.07-.96z"/><path class="cls-3" d="M118.39 79.6h-.19C92.64 79.6 72 67.56 72 52.72c0-8.4 6.64-14.09 17-17.44a1.73 1.73 0 001.13-2.16 1.57 1.57 0 00-.29-.54A4.56 4.56 0 0084 31.44c-9.31 5.37-15.1 12.92-15.1 21.28 0 16.33 22.1 29.57 49.35 29.57h.39c27.27 0 49.36-13.24 49.36-29.57 0-8.36-5.79-15.91-15.1-21.28a4.56 4.56 0 00-5.9 1.15 1.72 1.72 0 00.3 2.41 1.88 1.88 0 00.54.29c10.4 3.35 17 9 17 17.44 0 14.84-20.73 26.88-46.29 26.88z"/><path class="cls-4" d="M118.39 93.77c-2.22 0-4.4-.08-6.46-.25a7.3 7.3 0 0012.93 0c-2.06.17-4.24.26-6.47.25z"/><path class="cls-5" d="M62.69 81.18c-2.61 3-3 7.38-1.26 7.26S64 82.87 70.6 84.5s11.67 9.55 34.77 9.69v-.36c-4.52 0-20.71-1.5-32.91-13.7-1.98-1.97-7.17-1.98-9.77 1.05z"/><path class="cls-6" d="M174.1 81.18c2.61 3 3 7.38 1.26 7.26s-2.55-5.57-9.17-3.94-11.67 9.55-34.77 9.69v-.36c4.52 0 20.71-1.5 32.91-13.7 1.98-1.97 7.17-1.98 9.77 1.05z"/><path class="cls-7" d="M29.19 74.5c8.63-2.62 9.08-9.54 20-9.62 4.08 0 8.48 1.6 12.67 5.25a.26.26 0 00.29 0h.05a.24.24 0 000-.34c-1.23-1.41-9-9.71-17-9.24-9.14 0-12.58 12.51-16.39 10.51-1-.8-.22-1.57-.37-2.81a2.27 2.27 0 00-2.42-2c-4.81.24-5.46 10.88 3.17 8.25z"/><path class="cls-8" d="M207.6 74.5c-8.62-2.62-9.08-9.54-20-9.62-4.08 0-8.48 1.6-12.67 5.25a.26.26 0 01-.29 0 .25.25 0 010-.34c1.23-1.41 9-9.71 17-9.24 9.14 0 12.57 12.51 16.36 10.51 1-.8.22-1.57.38-2.81a2.27 2.27 0 012.42-2c4.78.24 5.43 10.88-3.2 8.25z"/><path class="cls-9" d="M59.06 59.38s-1.5-2-.69-7.25c-5.09-1.77-10.27-9.87 4.88-14.69.29-.11.29-.56-.21-.56-18.62 1.81-17.92 19.87-3.98 22.5z"/><path class="cls-10" d="M177.73 59.38s1.5-2 .69-7.25c5.09-1.77 10.27-9.87-4.87-14.69-.29-.11-.29-.56.21-.56 18.6 1.81 17.9 19.87 3.97 22.5z"/><path class="cls-11" d="M49.68 67.72c-5.62 0-7.28 6.37-10.31 2.54-.19 3.69 2.14 5.15 4.31 5.15 4.34 0 5.66-2.9 9-3.07s7.44 3.7 12.27 3a.38.38 0 00.32-.37v-.08a.37.37 0 00-.37-.38c-7.9-.08-8.05-6.31-15.22-6.79z"/><path class="cls-12" d="M187.11 67.72c5.62 0 7.28 6.37 10.31 2.54.19 3.69-2.14 5.15-4.31 5.15-4.34 0-5.66-2.9-9-3.07s-7.44 3.7-12.27 3a.39.39 0 01-.32-.37v-.08a.38.38 0 01.37-.38c7.87-.08 8.11-6.31 15.22-6.79z"/><path class="cls-13" d="M64.33 34.55c3.16-4 11.48-10 16.86-13.06a.25.25 0 00.1-.34.24.24 0 00-.34-.1c-6.18 2.2-15.15 9.85-16.85 12-.49.72-.39 2.1.23 1.5z"/><path class="cls-14" d="M172.46 34.55c-3.16-4-11.48-10-16.86-13.06a.25.25 0 01-.12-.32.23.23 0 01.32-.12c6.15 2.21 15.15 9.86 16.85 12 .53.72.43 2.1-.19 1.5z"/><path class="cls-15" d="M35.64 79.31c-6.06-.07-26.17-.42-35.47-1.51a.21.21 0 00-.16.26.21.21 0 00.16.17c5.26.67 14.57 1.67 26.72 2.26 27.5 1.33 29.27.74 29.27-1.06-.03-1.43-7.38.05-20.52-.12z"/><path class="cls-16" d="M201.14 79.31c6.06-.07 26.17-.42 35.47-1.51a.21.21 0 01.17.26.23.23 0 01-.17.17c-5.26.67-14.57 1.67-26.72 2.26-27.5 1.33-29.27.74-29.27-1.06.04-1.43 7.38.05 20.52-.12z"/><path class="cls-17" d="M118.39 6.73c-2.21.13-1.56 8.49-3.9 9.49 0 .6.62.58 1.22 0s1.51-1.91 2.68-2c1.17.14 2 1.4 2.68 2s1.22.57 1.22 0c-2.29-1-1.69-9.36-3.9-9.49z"/><path class="cls-18" d="M118.39 1.4a45 45 0 00-5.67.47c-3.27-3.59-9.14-1.28-7.17 1.9.89 1.79 3.83.77 3.47-1.2 1.42.29 2.53 1.75 3 3.55 1 3.64-2.08 7.36-4.69 8.26l-.62.1c-4.58-3.48-10.07-8.22-16.66-7-2.72.48-5.4 2.57-5.7 5.57-.79 8.1 10.14 7.84 9.5.68-.22-2.53-3.72-2.46-3.72.74.09 1-1.49 1.84-2.06.59a3.09 3.09 0 011.42-4.14 2.39 2.39 0 01.37-.15c4.77-1 11.83 6 17.29 7.53-1.05.14-2.85.3-3.88.48a9.33 9.33 0 01-4.22-2.57c-1.59-.92 0 1.69 1 3.18-22.5 4.72-38.74 18-38.74 33.77 0 19.69 25.47 35.65 56.89 35.65h.38c31.42 0 56.89-16 56.89-35.65 0-15.72-16.24-29.06-38.78-33.8 1-1.48 2.62-4.09 1-3.18a9.22 9.22 0 01-4.22 2.57c-1-.18-2.82-.34-3.88-.48 5.51-1.55 12.56-8.52 17.36-7.52a3.08 3.08 0 011.77 4.3c-.58 1.25-2.16.42-2.06-.59 0-3.19-3.49-3.27-3.72-.74-.64 7.16 10.29 7.42 9.5-.68-.3-3-3-5.07-5.68-5.61-6.58-1.18-12.07 3.56-16.66 7l-.62-.1c-2.61-.9-5.69-4.63-4.69-8.26.45-1.8 1.56-3.26 3-3.55a1.87 1.87 0 003.47 1.2c2-3.17-3.9-5.49-7.17-1.9a45.26 45.26 0 00-5.7-.42zm0 16.11h-.19q-3 0-5.92.19a20 20 0 01-4.87-2.65c4.6-1.78 7.7-5.47 7.1-9.4a8.82 8.82 0 00-.75-2.24 19.66 19.66 0 014.63-.71 19.58 19.58 0 014.63.71 9.23 9.23 0 00-.75 2.24c-.6 3.93 2.5 7.62 7.1 9.4a20 20 0 01-4.87 2.64c-1.94-.13-3.92-.19-5.92-.19zm0 68.87h-.19c-29.88 0-54.1-14.91-54.1-33.31s24.22-33.31 54.1-33.31h.38c29.88 0 54.1 14.91 54.1 33.31s-24.22 33.31-54.1 33.31z"/><path class="cls-19" d="M44.61 129.39h10.78v2.73H41.32V106.9h3.29zm27.7-7.26a7.26 7.26 0 01-.11 1.54H59.51c.07 4.42 2.88 6.25 6.18 6.25a11.87 11.87 0 005-.94l.6 2.36a14.8 14.8 0 01-6.06 1.16c-5.54 0-8.91-3.71-8.91-9.13s3.26-9.77 8.53-9.77c5.92 0 7.46 5.2 7.46 8.53zm-3.18-.82c0-2.1-.86-5.35-4.53-5.35-3.37 0-4.79 3.07-5 5.35zm15.53-7.71a6.7 6.7 0 00-6 3.37h-.07l-.19-3h-2.91c.11 1.5.15 3 .15 4.9v13.21H79V121.2a5.24 5.24 0 01.22-1.53 4.75 4.75 0 014.42-3.37c3.11 0 4.19 2.47 4.19 5.39v10.44h3.29v-10.82c-.06-6.26-3.95-7.71-6.46-7.71zm27.4 9.28c0 6.74-4.68 9.66-9 9.66-4.87 0-8.68-3.59-8.68-9.32 0-6.06 4-9.62 9-9.62 5.16 0 8.67 3.78 8.67 9.28zm-3.37.11c0-3.07-1.53-6.92-5.43-6.92s-5.54 3.59-5.54 7c0 4 2.25 7 5.43 7 3.18-.02 5.54-2.96 5.54-7.07zm26.69-9.39a6 6 0 00-4 1.27 7.2 7.2 0 00-2.06 2.36h-.07a5.31 5.31 0 00-5.09-3.63 6.24 6.24 0 00-5.73 3.33h-.11l-.15-2.92h-2.88c.08 1.5.15 3 .15 4.9v13.21h3.22V121.2a4.91 4.91 0 014.34-4.9c2.51 0 3.78 2.06 3.78 4.94v10.89H130V120.9a6.11 6.11 0 01.26-1.65 4.33 4.33 0 013.93-3c2.62 0 3.93 2.06 3.93 5.58v10.26h3.22v-10.63c0-6.29-3.54-7.86-6-7.86zm23.32 14.19a31.51 31.51 0 00.26 4.34h-3l-.3-2.28h-.11a6.71 6.71 0 01-5.54 2.7 5.16 5.16 0 01-5.52-4.77v-.43c0-4.38 3.89-6.77 10.89-6.74v-.37c0-1.5-.41-4.23-4.12-4.19a8.68 8.68 0 00-4.75 1.35l-.75-2.21a11.63 11.63 0 016-1.57c5.58 0 6.92 3.78 6.92 7.41zm-3.22-4.9c-3.59-.08-7.67.56-7.67 4.08a2.89 2.89 0 002.63 3.13 3.2 3.2 0 00.44 0 4.58 4.58 0 004.45-3 3.46 3.46 0 00.15-1zm8.46 4.94a2.22 2.22 0 00-2.25 2.2v.16a2.2 2.2 0 002 2.35h.13a2.23 2.23 0 002.26-2.17 1.21 1.21 0 000-.19 2.19 2.19 0 00-2-2.37h-.19zm7.78-10.26h-.11l-.16-3.52h-2.88c.11 1.68.15 3.52.15 5.65v12.46H172v-9.69a11 11 0 01.11-1.53c.45-2.43 2.1-4.19 4.42-4.19a8.32 8.32 0 011.12.07v-3.11a5.37 5.37 0 00-.9-.07 5.48 5.48 0 00-5 3.93zm23.65 9.58v-13.1h-3.29v11a4.42 4.42 0 01-.3 1.68 4.75 4.75 0 01-4.34 3c-3 0-4-2.36-4-5.8v-9.88h-3.29v10.59c0 6.33 3.41 7.94 6.25 7.94a6.76 6.76 0 006-3.37h.07l.19 3h2.92a43.25 43.25 0 01-.22-5.06z"/></g></g></g></g></svg>