<svg xmlns="http://www.w3.org/2000/svg" viewBox="0 0 88 88"><title>schedule</title><g id="Слой_2" data-name="Слой 2"><g id="Слой_1-2" data-name="Слой 1"><path d="M84,40a4,4,0,0,0-4,4,36.73,36.73,0,0,1-4.8,18A36.32,36.32,0,0,1,62,75.2a36.15,36.15,0,0,1-36,0A36.32,36.32,0,0,1,12.8,62a36.15,36.15,0,0,1,0-36h0A36.32,36.32,0,0,1,26,12.8,36.71,36.71,0,0,1,40,8.2V44a4,4,0,0,0,4,4H69a4,4,0,0,0,0-8H48V4a4,4,0,0,0-4-4A43.71,43.71,0,0,0,22,5.9,44.38,44.38,0,0,0,5.9,22h0a44,44,0,0,0,0,44A44.38,44.38,0,0,0,22,82.1a44,44,0,0,0,44,0A44.38,44.38,0,0,0,82.1,66,43.71,43.71,0,0,0,88,44,4,4,0,0,0,84,40Z"/></g></g></svg>