<svg xmlns="http://www.w3.org/2000/svg" viewBox="0 0 88 88" fill="#c1a067"><g data-name="Слой 2"><path d="M84 40a4 4 0 00-4 4 36.73 36.73 0 01-4.8 18A36.32 36.32 0 0162 75.2a36.15 36.15 0 01-36 0A36.32 36.32 0 0112.8 62a36.15 36.15 0 010-36A36.32 36.32 0 0126 12.8a36.71 36.71 0 0114-4.6V44a4 4 0 004 4h25a4 4 0 000-8H48V4a4 4 0 00-4-4 43.71 43.71 0 00-22 5.9A44.38 44.38 0 005.9 22a44 44 0 000 44A44.38 44.38 0 0022 82.1a44 44 0 0044 0A44.38 44.38 0 0082.1 66 43.71 43.71 0 0088 44a4 4 0 00-4-4z" data-name="Слой 1"/></g></svg>
