<svg xmlns="http://www.w3.org/2000/svg" viewBox="0 0 7.82 9.56"><title>skype</title><g id="Слой_2" data-name="Слой 2"><g id="Режим_изоляции" data-name="Режим изоляции"><path d="M3.87,8a2.26,2.26,0,0,1-1-.18,1.62,1.62,0,0,1-.55-.43C2.1,7,2,6.71,2,6.69a1.42,1.42,0,0,0-.37-.6A1.06,1.06,0,0,0,1,5.87a.94.94,0,0,0-.7.28A.87.87,0,0,0,0,6.79,2.29,2.29,0,0,0,.43,8,3.13,3.13,0,0,0,1.52,9a5.14,5.14,0,0,0,2.41.52A5.7,5.7,0,0,0,6,9.19,3.2,3.2,0,0,0,7.37,8.13,2.79,2.79,0,0,0,7.82,6.6a3,3,0,0,0-.24-1.21,2.26,2.26,0,0,0-.76-.82A5.6,5.6,0,0,0,5.66,4C5,3.81,4.49,3.68,4.2,3.62s-.32-.05-.53-.1l-.41-.11a3,3,0,0,1-.52-.21,1.07,1.07,0,0,1-.39-.34.5.5,0,0,1-.16-.39.78.78,0,0,1,.43-.64,1.82,1.82,0,0,1,1.16-.31,1.89,1.89,0,0,1,1.12.27,2.12,2.12,0,0,1,.58.77,2.66,2.66,0,0,0,.4.54.87.87,0,0,0,.57.19A1,1,0,0,0,7.15,3a.88.88,0,0,0,.28-.67,2,2,0,0,0-.22-.79A3.8,3.8,0,0,0,6.57.79,4.17,4.17,0,0,0,5.45.21,5.63,5.63,0,0,0,3.9,0,5.14,5.14,0,0,0,2,.34a2.65,2.65,0,0,0-1.31.91,2.28,2.28,0,0,0-.46,1.4A2.3,2.3,0,0,0,.61,4a2.93,2.93,0,0,0,1.16.85,8.73,8.73,0,0,0,1.76.55,3.71,3.71,0,0,1,.44.1l.46.12.32.08a1.77,1.77,0,0,1,.7.43.76.76,0,0,1,.27.64,1,1,0,0,1-.48.85A2.47,2.47,0,0,1,3.87,8"/></g></g></svg>