<svg xmlns="http://www.w3.org/2000/svg" xmlns:xlink="http://www.w3.org/1999/xlink"><defs><style>.cls-1{fill:url(#Безымянный_градиент_3);}.cls-2{fill:url(#Безымянный_градиент_3-3);}</style><linearGradient id="&#x411;&#x435;&#x437;&#x44B;&#x43C;&#x44F;&#x43D;&#x43D;&#x44B;&#x439;_&#x433;&#x440;&#x430;&#x434;&#x438;&#x435;&#x43D;&#x442;_3" x1="275.52" y1="763.43" x2="275.52" y2="218.28" gradientTransform="translate(0 -214)" gradientUnits="userSpaceOnUse"><stop offset="0" stop-color="#e09b3d"/><stop offset="0.3" stop-color="#c74c4d"/><stop offset="0.6" stop-color="#c21975"/><stop offset="1" stop-color="#7024c4"/></linearGradient><linearGradient id="&#x411;&#x435;&#x437;&#x44B;&#x43C;&#x44F;&#x43D;&#x43D;&#x44B;&#x439;_&#x433;&#x440;&#x430;&#x434;&#x438;&#x435;&#x43D;&#x442;_3-3" x1="418.31" y1="763.43" x2="418.31" y2="218.28" xlink:href="#&#x411;&#x435;&#x437;&#x44B;&#x43C;&#x44F;&#x43D;&#x43D;&#x44B;&#x439;_&#x433;&#x440;&#x430;&#x434;&#x438;&#x435;&#x43D;&#x442;_3"/><style>.cls-1{stroke:#000;stroke-miterlimit:10;stroke-width:4px;}</style></defs><symbol id="icon-arrow-next" viewBox="0 0 192 320"><title>arrow-next</title><g id="&#x421;&#x43B;&#x43E;&#x439;_2" data-name="&#x421;&#x43B;&#x43E;&#x439; 2"><g id="Layer_1" data-name="Layer 1"><polygon points="0 19.4 20.7 0 192 160 20.7 320 0 300.7 150.5 160 0 19.4"/></g></g></symbol><symbol id="icon-arrow-prev" viewBox="0 0 192 320"><title>arrow-prev</title><g id="&#x421;&#x43B;&#x43E;&#x439;_2" data-name="&#x421;&#x43B;&#x43E;&#x439; 2"><g id="Layer_1" data-name="Layer 1"><polygon points="192 300.6 171.3 320 0 160 171.3 0 192 19.3 41.5 160 192 300.6"/></g></g></symbol><symbol id="icon-basket" viewBox="0 0 70 90"><title>basket</title><g id="&#x421;&#x43B;&#x43E;&#x439;_2" data-name="&#x421;&#x43B;&#x43E;&#x439; 2"><g id="&#x421;&#x43B;&#x43E;&#x439;_1-2" data-name="&#x421;&#x43B;&#x43E;&#x439; 1"><path d="M35,0A15,15,0,0,0,20,15v5H2.5A2.5,2.5,0,0,0,0,22.5v65A2.5,2.5,0,0,0,2.5,90h65A2.5,2.5,0,0,0,70,87.5v-65A2.5,2.5,0,0,0,67.5,20H50V15A15,15,0,0,0,35,0ZM25,15a10,10,0,0,1,20,0v5H25ZM65,25V85H5V25H20v7.5a2.5,2.5,0,0,0,5,0V25H45v7.5a2.5,2.5,0,0,0,5,0V25Z"/></g></g></symbol><symbol id="icon-instagram" viewBox="0 0 551.03 551.03"><title>instagram</title><g id="&#x421;&#x43B;&#x43E;&#x439;_2" data-name="&#x421;&#x43B;&#x43E;&#x439; 2"><g id="Layer_1" data-name="Layer 1"><g id="_&#x413;&#x440;&#x443;&#x43F;&#x43F;&#x430;_" data-name="&lt;&#x413;&#x440;&#x443;&#x43F;&#x43F;&#x430;&gt;"><path id="_&#x421;&#x43E;&#x441;&#x442;&#x430;&#x432;&#x43D;&#x43E;&#x439;_&#x43A;&#x43E;&#x43D;&#x442;&#x443;&#x440;_" data-name="&lt;&#x421;&#x43E;&#x441;&#x442;&#x430;&#x432;&#x43D;&#x43E;&#x439; &#x43A;&#x43E;&#x43D;&#x442;&#x443;&#x440;&gt;" class="cls-1" d="M386.88,0H164.16C73.64,0,0,73.64,0,164.16V386.88C0,477.39,73.64,551,164.16,551H386.88C477.39,551,551,477.39,551,386.88V164.16C551,73.64,477.39,0,386.88,0ZM495.6,386.88A108.73,108.73,0,0,1,386.88,495.6H164.16A108.73,108.73,0,0,1,55.43,386.88V164.16A108.73,108.73,0,0,1,164.16,55.43H386.88A108.73,108.73,0,0,1,495.6,164.16V386.88Z"/><path id="_&#x421;&#x43E;&#x441;&#x442;&#x430;&#x432;&#x43D;&#x43E;&#x439;_&#x43A;&#x43E;&#x43D;&#x442;&#x443;&#x440;_2" data-name="&lt;&#x421;&#x43E;&#x441;&#x442;&#x430;&#x432;&#x43D;&#x43E;&#x439; &#x43A;&#x43E;&#x43D;&#x442;&#x443;&#x440;&gt;" class="cls-1" d="M275.52,133C196.93,133,133,196.93,133,275.52S196.93,418,275.52,418,418,354.1,418,275.52,354.1,133,275.52,133Zm0,229.6a87.09,87.09,0,1,1,87.08-87.08A87.09,87.09,0,0,1,275.52,362.6Z"/><circle id="_&#x41A;&#x43E;&#x43D;&#x442;&#x443;&#x440;_" data-name="&lt;&#x41A;&#x43E;&#x43D;&#x442;&#x443;&#x440;&gt;" class="cls-2" cx="418.31" cy="134.07" r="34.15"/></g></g></g></symbol><symbol id="icon-search" viewBox="0 0 388.82 388.84"><title>search</title><g id="&#x421;&#x43B;&#x43E;&#x439;_2" data-name="&#x421;&#x43B;&#x43E;&#x439; 2"><g id="Layer_1" data-name="Layer 1"><path class="cls-1" d="M282.5,236a151.82,151.82,0,0,0,23.8-81.7C306.3,70.2,238.2,2,154.2,2A152.23,152.23,0,0,0,2,154.3c0,84.1,68.1,152.3,152.1,152.3a151.77,151.77,0,0,0,82.7-24.4l6.9-4.8L352.3,386,386,351.7,277.5,243.1ZM239.4,69.2a120.23,120.23,0,1,1-85-35.2A119.44,119.44,0,0,1,239.4,69.2Z"/></g></g></symbol><symbol id="icon-viber" viewBox="0 0 22.5 23.11"><title>viber</title><g id="&#x421;&#x43B;&#x43E;&#x439;_2" data-name="&#x421;&#x43B;&#x43E;&#x439; 2"><g id="Layer_1" data-name="Layer 1"><path d="M10.73,1.21a9.87,9.87,0,0,1,6.1,2.2,10.17,10.17,0,0,1,4,6.7,16.41,16.41,0,0,1,.2,2.3,2,2,0,0,0,.2,1.1.54.54,0,0,0,.4.3c.1,0,.2,0,.2-.1A.57.57,0,0,0,22,13a2.44,2.44,0,0,1-.1-.7,8.75,8.75,0,0,0-.3-2.4,11.11,11.11,0,0,0-4.4-7.3,11.83,11.83,0,0,0-6.7-2.4c-.8,0-.9-.1-.9-.1a.49.49,0,0,0-.7.1c.1.2.1.5.3.7A2.81,2.81,0,0,0,10.73,1.21Z"/><path d="M17.13,8a6.5,6.5,0,0,1,.8,3.1,1.81,1.81,0,0,0,.7,1.7c.1,0,.1.1.2.1s.4-.1.4-.3a.66.66,0,0,0-.2-.7c-.1,0-.2-.1-.2-.8a7.13,7.13,0,0,0-.9-3.6,6.64,6.64,0,0,0-2.7-2.8,8.89,8.89,0,0,0-3.7-1.1c-.4,0-.5-.1-.5-.2a.49.49,0,0,0-.7.7,1.37,1.37,0,0,0,1.1.4,8.51,8.51,0,0,1,3.3,1A6.42,6.42,0,0,1,17.13,8Z"/><path d="M15.63,10.31a5.29,5.29,0,0,0-.4-1.6A3,3,0,0,0,12.53,7c-.5-.1-.5-.1-.6-.2a.49.49,0,0,0-.7-.1.62.62,0,0,0-.1.7,1.91,1.91,0,0,0,1.2.5,2.06,2.06,0,0,1,1.9,1.2,2.77,2.77,0,0,1,.3,1.3,1.63,1.63,0,0,0,.5,1.1.37.37,0,0,0,.3.1.52.52,0,0,0,.4-.2.49.49,0,0,0-.1-.7C15.73,10.71,15.63,10.71,15.63,10.31Z"/><path d="M22,17.31c-.3-.3-1.9-1.6-2.6-2.1a13,13,0,0,0-1.9-1.1,2.54,2.54,0,0,0-1.9-.2c-.5.2-.7.4-1.3,1.1a1.79,1.79,0,0,0-.5.7.35.35,0,0,1-.2.1c-.3.1-.8,0-1.7-.4a10.19,10.19,0,0,1-2.2-1.6,10.06,10.06,0,0,1-1.7-2,5.38,5.38,0,0,1-.8-2.2c0-.2,0-.5.1-.6l.1-.1c.1-.1.3-.2.5-.4.9-.7,1.2-1,1.3-1.5a3,3,0,0,0-.4-1.9A16.8,16.8,0,0,0,5.53.81c-.1-.1-.4-.2-.5-.3a5.28,5.28,0,0,0-1.2-.1,6.82,6.82,0,0,0-1.9,1.1,12.07,12.07,0,0,0-1.6,1.6,3.41,3.41,0,0,0,.1,3.1,34,34,0,0,0,2.7,5.4c.2.3.3.5.5.8s.4.5.6.8a25.93,25.93,0,0,0,6.5,6.3l.1.1c.1.1.3.2.4.3l.3.2c.2.1.3.2.5.3l2.8,1.6.6.3.3.1c.3.1.6.3.9.4a3.92,3.92,0,0,0,1.3.3h.2a3.41,3.41,0,0,0,2-.8,8,8,0,0,0,2.2-2.7A2.3,2.3,0,0,0,22,17.31Z"/></g></g></symbol><symbol id="icon-whatsapp" viewBox="0 0 90 90"><title>&#x420;&#x435;&#x441;&#x443;&#x440;&#x441; 1</title><g id="&#x421;&#x43B;&#x43E;&#x439;_2" data-name="&#x421;&#x43B;&#x43E;&#x439; 2"><g id="Capa_1" data-name="Capa 1"><path id="WhatsApp" d="M90,43.8A44,44,0,0,1,45.8,87.6a44.51,44.51,0,0,1-21.4-5.5L0,90,8,66.5A43.85,43.85,0,0,1,45.8,0,44,44,0,0,1,90,43.8ZM45.8,7A37,37,0,0,0,8.7,43.8a36.08,36.08,0,0,0,7.1,21.6L11.2,79.1l14.3-4.5A36.93,36.93,0,1,0,45.8,7ZM68.1,53.9A7.69,7.69,0,0,0,66,52.6c-1.1-.5-6.4-3.1-7.4-3.5s-1.7-.5-2.4.5-2.8,3.5-3.4,4.2a1.67,1.67,0,0,1-2.3.3,29.07,29.07,0,0,1-8.7-5.3,32.38,32.38,0,0,1-6-7.4,1.54,1.54,0,0,1,.5-2.2c.5-.5,1.1-1.3,1.6-1.9A10.81,10.81,0,0,0,39,35.5a1.84,1.84,0,0,0-.1-1.9c-.3-.5-2.4-5.8-3.3-8s-1.8-1.8-2.4-1.8-1.4-.1-2.1-.1A4.31,4.31,0,0,0,28.2,25a12.11,12.11,0,0,0-3.8,9c0,5.3,3.9,10.4,4.4,11.1S36.3,57,47.3,61.3s11,2.9,13,2.7,6.4-2.6,7.3-5.1S68.4,54.4,68.1,53.9Z"/></g></g></symbol></svg>